/* XPM */
static char * maximize_xpm[] = {
"16 14 3 1",
" 	c #889180",
".	c #282E22",
"+	c #4C5844",
"               .",
" ++++++++++++++.",
" ++          ++.",
" ++          ++.",
" ++  ++++++  ++.",
" ++  ++++++  ++.",
" ++  ++++++  ++.",
" ++  ++++++  ++.",
" ++  ++++++  ++.",
" ++          ++.",
" ++          ++.",
" ++++++++++++++.",
" ++++++++++++++.",
"................"};
