/* XPM */
static char * restore_xpm[] = {
"16 14 4 1",
" 	c #889180",
".	c #282E22",
"+	c #4C5844",
"@	c #4D5945",
"               .",
" ++++++++++++++.",
" +++++       ++.",
" +++++       ++.",
" +++++  +++  ++.",
" ++       +  ++.",
" ++       +  ++.",
" ++  ++@     ++.",
" ++  +++     ++.",
" ++  +++  +++++.",
" ++       +++++.",
" ++       +++++.",
" ++++++++++++++.",
"................"};
